<?xml version="1.0" encoding="utf-8"?>
<!-- Generator: Adobe Illustrator 25.1.0, SVG Export Plug-In . SVG Version: 6.00 Build 0)  -->
<svg version="1.1" id="레이어_1" xmlns="http://www.w3.org/2000/svg" xmlns:xlink="http://www.w3.org/1999/xlink" x="0px"
	 y="0px" viewBox="0 0 30 30" style="enable-background:new 0 0 30 30;" xml:space="preserve">
<style type="text/css">
	.st0{fill:#4A4949;}
</style>
<g>
	<path class="st0" d="M27.98,15.05L27.98,15.05c-0.08,0.25-0.89,0.04-1.79-0.46L7.83,4.48c-0.91-0.5-1.59-1.11-1.51-1.36v0
		C6.4,2.87,7.21,3.08,8.12,3.58l18.35,10.11C27.38,14.19,28.06,14.8,27.98,15.05z"/>
	<path class="st0" d="M27.95,15.06L27.95,15.06c0.17,0.2-0.42,0.78-1.32,1.3L8.52,26.89c-0.9,0.52-1.77,0.79-1.94,0.59l0,0
		C6.4,27.29,7,26.7,7.89,26.18l18.12-10.52C26.91,15.13,27.78,14.87,27.95,15.06z"/>
</g>
</svg>
